<svg width="38" height="35" viewBox="0 0 38 35" fill="none" xmlns="http://www.w3.org/2000/svg">
<g filter="url(#filter0_d_1_2751)">
<path d="M20.6279 0.166011C21.7833 0.161577 22.9388 0.173189 24.0938 0.200844L24.401 0.211927C24.7557 0.224594 25.1056 0.240427 25.5283 0.259427C27.213 0.338594 28.3625 0.604594 29.3711 0.995678C30.4161 1.39784 31.2964 1.94251 32.1768 2.82284C32.9817 3.61389 33.6047 4.57076 34.0023 5.62693C34.3934 6.63551 34.6594 7.78659 34.7386 9.47126C34.7576 9.89243 34.7734 10.2439 34.7861 10.5986L34.7956 10.9058C34.8237 12.0603 34.8359 13.2152 34.832 14.3701L34.8336 15.5513V17.6254C34.8375 18.7808 34.8254 19.9363 34.7972 21.0913L34.7877 21.3985C34.775 21.7532 34.7592 22.1031 34.7402 22.5258C34.661 24.2105 34.3918 25.36 34.0023 26.3686C33.606 27.4259 32.9828 28.3835 32.1768 29.1743C31.385 29.9791 30.4277 30.602 29.3711 30.9998C28.3625 31.3909 27.213 31.6569 25.5283 31.7361C25.1056 31.7551 24.7557 31.7709 24.401 31.7836L24.0938 31.7931C22.9388 31.8212 21.7833 31.8334 20.6279 31.8295L19.4468 31.8311H17.3742C16.2188 31.835 15.0633 31.8229 13.9083 31.7947L13.6011 31.7852C13.2252 31.7716 12.8494 31.7557 12.4738 31.7377C10.7891 31.6585 9.6396 31.3893 8.62943 30.9998C7.57284 30.603 6.61581 29.9799 5.82535 29.1743C5.0195 28.383 4.39595 27.4256 3.99818 26.3686C3.6071 25.36 3.3411 24.2105 3.26193 22.5258C3.2443 22.1501 3.22846 21.7744 3.21443 21.3985L3.20651 21.0913C3.17732 19.9363 3.16413 18.7809 3.16693 17.6254V14.3701C3.16251 13.2152 3.17412 12.0603 3.20176 10.9058L3.21285 10.5986C3.22551 10.2439 3.24135 9.89243 3.26035 9.47126C3.33951 7.78501 3.60551 6.63709 3.9966 5.62693C4.3946 4.57024 5.01937 3.61363 5.82693 2.82443C6.61685 2.01812 7.57328 1.394 8.62943 0.995678C9.6396 0.604594 10.7875 0.338594 12.4738 0.259427L13.6011 0.211927L13.9083 0.204011C15.0628 0.174835 16.2177 0.161639 17.3726 0.164427L20.6279 0.166011ZM19.0003 8.08268C17.9513 8.06784 16.9099 8.26163 15.9365 8.65278C14.9631 9.04394 14.0771 9.62465 13.3301 10.3612C12.5831 11.0977 11.9899 11.9754 11.585 12.9431C11.1801 13.9109 10.9716 14.9495 10.9716 15.9986C10.9716 17.0476 11.1801 18.0862 11.585 19.054C11.9899 20.0217 12.5831 20.8994 13.3301 21.6359C14.0771 22.3725 14.9631 22.9532 15.9365 23.3443C16.9099 23.7355 17.9513 23.9293 19.0003 23.9144C21.0999 23.9144 23.1135 23.0804 24.5982 21.5957C26.0829 20.111 26.9169 18.0974 26.9169 15.9978C26.9169 13.8981 26.0829 11.8845 24.5982 10.3998C23.1135 8.91517 21.0999 8.08268 19.0003 8.08268ZM19.0003 11.2493C19.6312 11.2377 20.2582 11.3519 20.8445 11.5853C21.4309 11.8187 21.9648 12.1666 22.4152 12.6087C22.8655 13.0508 23.2233 13.5782 23.4675 14.1601C23.7118 14.7419 23.8377 15.3667 23.8378 15.9977C23.8379 16.6288 23.7122 17.2536 23.4682 17.8356C23.2241 18.4175 22.8665 18.945 22.4163 19.3873C21.9661 19.8295 21.4322 20.1776 20.846 20.4112C20.2597 20.6447 19.6328 20.7592 19.0018 20.7478C17.7421 20.7478 16.5339 20.2473 15.6431 19.3565C14.7523 18.4657 14.2518 17.2575 14.2518 15.9978C14.2518 14.738 14.7523 13.5298 15.6431 12.639C16.5339 11.7482 17.7421 11.2478 19.0018 11.2478L19.0003 11.2493ZM27.3128 5.70768C26.802 5.72812 26.3189 5.94542 25.9647 6.31405C25.6105 6.68268 25.4127 7.17406 25.4127 7.68526C25.4127 8.19646 25.6105 8.68784 25.9647 9.05647C26.3189 9.42511 26.802 9.6424 27.3128 9.66284C27.8377 9.66284 28.3411 9.45433 28.7122 9.08316C29.0834 8.71199 29.2919 8.20858 29.2919 7.68368C29.2919 7.15877 29.0834 6.65536 28.7122 6.2842C28.3411 5.91303 27.8377 5.70451 27.3128 5.70451V5.70768Z" fill="#1A8950"/>
</g>
<defs>
<filter id="filter0_d_1_2751" x="-0.833984" y="0.164062" width="39.668" height="39.668" filterUnits="userSpaceOnUse" color-interpolation-filters="sRGB">
<feFlood flood-opacity="0" result="BackgroundImageFix"/>
<feColorMatrix in="SourceAlpha" type="matrix" values="0 0 0 0 0 0 0 0 0 0 0 0 0 0 0 0 0 0 127 0" result="hardAlpha"/>
<feOffset dy="4"/>
<feGaussianBlur stdDeviation="2"/>
<feComposite in2="hardAlpha" operator="out"/>
<feColorMatrix type="matrix" values="0 0 0 0 0 0 0 0 0 0 0 0 0 0 0 0 0 0 0.25 0"/>
<feBlend mode="normal" in2="BackgroundImageFix" result="effect1_dropShadow_1_2751"/>
<feBlend mode="normal" in="SourceGraphic" in2="effect1_dropShadow_1_2751" result="shape"/>
</filter>
</defs>
</svg>
