<svg width="32" height="32" viewBox="0 0 32 32" fill="none" xmlns="http://www.w3.org/2000/svg">
<path d="M17.6279 0.166011C18.7833 0.161577 19.9388 0.173189 21.0938 0.200844L21.401 0.211927C21.7557 0.224594 22.1056 0.240427 22.5283 0.259427C24.213 0.338594 25.3625 0.604594 26.3711 0.995678C27.4161 1.39784 28.2964 1.94251 29.1768 2.82284C29.9817 3.61389 30.6047 4.57076 31.0023 5.62693C31.3934 6.63551 31.6594 7.78659 31.7386 9.47126C31.7576 9.89243 31.7734 10.2439 31.7861 10.5986L31.7956 10.9058C31.8237 12.0603 31.8359 13.2152 31.832 14.3701L31.8336 15.5513V17.6254C31.8375 18.7808 31.8254 19.9363 31.7972 21.0913L31.7877 21.3985C31.775 21.7532 31.7592 22.1031 31.7402 22.5258C31.661 24.2105 31.3918 25.36 31.0023 26.3686C30.606 27.4259 29.9828 28.3835 29.1768 29.1743C28.385 29.9791 27.4277 30.602 26.3711 30.9998C25.3625 31.3909 24.213 31.6569 22.5283 31.7361C22.1056 31.7551 21.7557 31.7709 21.401 31.7836L21.0938 31.7931C19.9388 31.8212 18.7833 31.8334 17.6279 31.8295L16.4468 31.8311H14.3742C13.2188 31.835 12.0633 31.8229 10.9083 31.7947L10.6011 31.7852C10.2252 31.7716 9.84944 31.7557 9.47376 31.7377C7.7891 31.6585 6.6396 31.3893 5.62943 30.9998C4.57284 30.603 3.61581 29.9799 2.82535 29.1743C2.0195 28.383 1.39595 27.4256 0.998179 26.3686C0.607096 25.36 0.341096 24.2105 0.261929 22.5258C0.244295 22.1501 0.228462 21.7744 0.214429 21.3985L0.206513 21.0913C0.177322 19.9363 0.164126 18.7809 0.166929 17.6254V14.3701C0.16251 13.2152 0.174123 12.0603 0.201763 10.9058L0.212846 10.5986C0.225513 10.2439 0.241346 9.89243 0.260346 9.47126C0.339513 7.78501 0.605512 6.63709 0.996596 5.62693C1.3946 4.57024 2.01937 3.61363 2.82693 2.82443C3.61685 2.01812 4.57328 1.394 5.62943 0.995678C6.6396 0.604594 7.78751 0.338594 9.47376 0.259427L10.6011 0.211927L10.9083 0.204011C12.0628 0.174835 13.2177 0.161639 14.3726 0.164427L17.6279 0.166011ZM16.0003 8.08268C14.9513 8.06784 13.9099 8.26163 12.9365 8.65278C11.9631 9.04394 11.0771 9.62465 10.3301 10.3612C9.58308 11.0977 8.9899 11.9754 8.58502 12.9431C8.18014 13.9109 7.97164 14.9495 7.97164 15.9986C7.97164 17.0476 8.18014 18.0862 8.58502 19.054C8.9899 20.0217 9.58308 20.8994 10.3301 21.6359C11.0771 22.3725 11.9631 22.9532 12.9365 23.3443C13.9099 23.7355 14.9513 23.9293 16.0003 23.9144C18.0999 23.9144 20.1135 23.0804 21.5982 21.5957C23.0829 20.111 23.9169 18.0974 23.9169 15.9978C23.9169 13.8981 23.0829 11.8845 21.5982 10.3998C20.1135 8.91517 18.0999 8.08268 16.0003 8.08268ZM16.0003 11.2493C16.6312 11.2377 17.2582 11.3519 17.8445 11.5853C18.4309 11.8187 18.9648 12.1666 19.4152 12.6087C19.8655 13.0508 20.2233 13.5782 20.4675 14.1601C20.7118 14.7419 20.8377 15.3667 20.8378 15.9977C20.8379 16.6288 20.7122 17.2536 20.4682 17.8356C20.2241 18.4175 19.8665 18.945 19.4163 19.3873C18.9661 19.8295 18.4322 20.1776 17.846 20.4112C17.2597 20.6447 16.6328 20.7592 16.0018 20.7478C14.7421 20.7478 13.5339 20.2473 12.6431 19.3565C11.7523 18.4657 11.2518 17.2575 11.2518 15.9978C11.2518 14.738 11.7523 13.5298 12.6431 12.639C13.5339 11.7482 14.7421 11.2478 16.0018 11.2478L16.0003 11.2493ZM24.3128 5.70768C23.802 5.72812 23.3189 5.94542 22.9647 6.31405C22.6105 6.68268 22.4127 7.17406 22.4127 7.68526C22.4127 8.19646 22.6105 8.68784 22.9647 9.05647C23.3189 9.42511 23.802 9.6424 24.3128 9.66284C24.8377 9.66284 25.3411 9.45433 25.7122 9.08316C26.0834 8.71199 26.2919 8.20858 26.2919 7.68368C26.2919 7.15877 26.0834 6.65536 25.7122 6.2842C25.3411 5.91303 24.8377 5.70451 24.3128 5.70451V5.70768Z" fill="#1A8950"/>
</svg>
