<svg width="38" height="38" viewBox="0 0 38 38" fill="none" xmlns="http://www.w3.org/2000/svg">
<path d="M18.9993 3.16406C10.2593 3.16406 3.16602 10.2574 3.16602 18.9974C3.16602 27.7374 10.2593 34.8307 18.9993 34.8307C27.7393 34.8307 34.8327 27.7374 34.8327 18.9974C34.8327 10.2574 27.7393 3.16406 18.9993 3.16406ZM26.346 13.9307C26.1085 16.4324 25.0793 22.5124 24.5568 25.3149C24.3352 26.5024 23.8918 26.8982 23.4802 26.9457C22.5618 27.0249 21.8652 26.3441 20.9785 25.7582C19.5852 24.8399 18.7935 24.2699 17.4477 23.3832C15.8802 22.3541 16.8935 21.7841 17.796 20.8657C18.0335 20.6282 22.0868 16.9391 22.166 16.6066C22.177 16.5562 22.1755 16.5039 22.1618 16.4543C22.148 16.4046 22.1222 16.359 22.0868 16.3216C21.9918 16.2424 21.8652 16.2741 21.7543 16.2899C21.6118 16.3216 19.3952 17.7941 15.0727 20.7074C14.4393 21.1349 13.8693 21.3566 13.3627 21.3407C12.7927 21.3249 11.716 21.0241 10.9085 20.7549C9.91102 20.4382 9.13518 20.2641 9.19852 19.7099C9.23018 19.4249 9.62602 19.1399 10.3702 18.8391C14.9935 16.8282 18.0652 15.4982 19.601 14.8649C24.0027 13.0282 24.9052 12.7116 25.5068 12.7116C25.6335 12.7116 25.9343 12.7432 26.1243 12.9016C26.2827 13.0282 26.3302 13.2024 26.346 13.3291C26.3302 13.4241 26.3618 13.7091 26.346 13.9307Z" fill="#1A8950"/>
</svg>
