<svg width="38" height="28" viewBox="0 0 38 28" fill="none" xmlns="http://www.w3.org/2000/svg">
<path fill-rule="evenodd" clip-rule="evenodd" d="M15.0765 18.6282V7.95177L25.3428 13.3082L15.0765 18.6282ZM37.62 6.10085C37.62 6.10085 37.2479 3.48202 36.1095 2.32935C34.6639 0.815687 33.0442 0.809354 32.3016 0.720688C26.9847 0.335938 19.0079 0.335938 19.0079 0.335938H18.9921C18.9921 0.335938 11.0153 0.335938 5.69842 0.720688C4.95425 0.807771 3.33608 0.815687 1.88892 2.32935C0.7505 3.48202 0.38 6.10085 0.38 6.10085C0.38 6.10085 0 9.17727 0 12.2505V15.1354C0 18.2102 0.38 21.285 0.38 21.285C0.38 21.285 0.7505 23.9023 1.88892 25.0565C3.33608 26.5702 5.2345 26.5227 6.08 26.681C9.12 26.9724 19 27.0626 19 27.0626C19 27.0626 26.9847 27.0515 32.3016 26.6668C33.0457 26.5781 34.6639 26.5702 36.1095 25.0565C37.2495 23.9023 37.62 21.285 37.62 21.285C37.62 21.285 38 18.2102 38 15.1338V12.2521C38 9.17727 37.62 6.10085 37.62 6.10085Z" fill="#1A8950"/>
</svg>
